<mxfile host="Electron" modified="2023-09-24T13:10:27.624Z" agent="Mozilla/5.0 (Windows NT 10.0; Win64; x64) AppleWebKit/537.36 (KHTML, like Gecko) draw.io/21.7.5 Chrome/114.0.5735.289 Electron/25.8.1 Safari/537.36" etag="5q9KG9Vl_qmTBUdf7fim" version="21.7.5" type="device">
  <diagram name="sd" id="WxBOz_vIAt1np6jKn4KT">
    <mxGraphModel dx="735" dy="564" grid="1" gridSize="10" guides="1" tooltips="1" connect="1" arrows="1" fold="1" page="1" pageScale="1" pageWidth="1169" pageHeight="827" math="0" shadow="0">
      <root>
        <mxCell id="0" />
        <mxCell id="1" parent="0" />
        <mxCell id="EGVu_2AXlCm4AcOK0Q-G-25" style="edgeStyle=none;shape=connector;rounded=0;orthogonalLoop=1;jettySize=auto;html=1;exitX=0.5;exitY=1;exitDx=0;exitDy=0;labelBackgroundColor=default;strokeColor=default;fontFamily=Helvetica;fontSize=11;fontColor=default;endArrow=none;endFill=0;" edge="1" parent="1" source="EGVu_2AXlCm4AcOK0Q-G-1">
          <mxGeometry relative="1" as="geometry">
            <mxPoint x="570" y="290" as="targetPoint" />
          </mxGeometry>
        </mxCell>
        <mxCell id="EGVu_2AXlCm4AcOK0Q-G-1" value="SnapTok" style="rounded=0;whiteSpace=wrap;html=1;spacingLeft=4;spacingRight=4;" vertex="1" parent="1">
          <mxGeometry x="510" y="200" width="120" height="60" as="geometry" />
        </mxCell>
        <mxCell id="EGVu_2AXlCm4AcOK0Q-G-21" style="edgeStyle=none;shape=connector;rounded=0;orthogonalLoop=1;jettySize=auto;html=1;exitX=0.5;exitY=0;exitDx=0;exitDy=0;labelBackgroundColor=default;strokeColor=default;fontFamily=Helvetica;fontSize=11;fontColor=default;endArrow=none;endFill=0;" edge="1" parent="1" source="EGVu_2AXlCm4AcOK0Q-G-2">
          <mxGeometry relative="1" as="geometry">
            <mxPoint x="220" y="290" as="targetPoint" />
          </mxGeometry>
        </mxCell>
        <mxCell id="EGVu_2AXlCm4AcOK0Q-G-2" value="Initialise variables" style="rounded=0;whiteSpace=wrap;html=1;spacingLeft=4;spacingRight=4;" vertex="1" parent="1">
          <mxGeometry x="160" y="320" width="120" height="60" as="geometry" />
        </mxCell>
        <mxCell id="EGVu_2AXlCm4AcOK0Q-G-22" style="edgeStyle=none;shape=connector;rounded=0;orthogonalLoop=1;jettySize=auto;html=1;exitX=0.5;exitY=0;exitDx=0;exitDy=0;labelBackgroundColor=default;strokeColor=default;fontFamily=Helvetica;fontSize=11;fontColor=default;endArrow=none;endFill=0;" edge="1" parent="1" source="EGVu_2AXlCm4AcOK0Q-G-3">
          <mxGeometry relative="1" as="geometry">
            <mxPoint x="360" y="290" as="targetPoint" />
          </mxGeometry>
        </mxCell>
        <mxCell id="EGVu_2AXlCm4AcOK0Q-G-3" value="Get age and location" style="rounded=0;whiteSpace=wrap;html=1;spacingLeft=4;spacingRight=4;" vertex="1" parent="1">
          <mxGeometry x="300" y="320" width="120" height="60" as="geometry" />
        </mxCell>
        <mxCell id="EGVu_2AXlCm4AcOK0Q-G-8" style="rounded=0;orthogonalLoop=1;jettySize=auto;html=1;exitX=0.5;exitY=1;exitDx=0;exitDy=0;entryX=0.5;entryY=0;entryDx=0;entryDy=0;endArrow=none;endFill=0;" edge="1" parent="1" source="EGVu_2AXlCm4AcOK0Q-G-4" target="EGVu_2AXlCm4AcOK0Q-G-5">
          <mxGeometry relative="1" as="geometry" />
        </mxCell>
        <mxCell id="EGVu_2AXlCm4AcOK0Q-G-23" style="edgeStyle=none;shape=connector;rounded=0;orthogonalLoop=1;jettySize=auto;html=1;exitX=0.5;exitY=0;exitDx=0;exitDy=0;labelBackgroundColor=default;strokeColor=default;fontFamily=Helvetica;fontSize=11;fontColor=default;endArrow=none;endFill=0;" edge="1" parent="1" source="EGVu_2AXlCm4AcOK0Q-G-4">
          <mxGeometry relative="1" as="geometry">
            <mxPoint x="500" y="290" as="targetPoint" />
          </mxGeometry>
        </mxCell>
        <mxCell id="EGVu_2AXlCm4AcOK0Q-G-4" value="Is age at least 13 and location UK?" style="shape=hexagon;perimeter=hexagonPerimeter2;whiteSpace=wrap;html=1;fixedSize=1;spacingLeft=4;spacingRight=4;" vertex="1" parent="1">
          <mxGeometry x="440" y="320" width="120" height="60" as="geometry" />
        </mxCell>
        <mxCell id="EGVu_2AXlCm4AcOK0Q-G-10" style="edgeStyle=none;shape=connector;rounded=0;orthogonalLoop=1;jettySize=auto;html=1;exitX=0.5;exitY=1;exitDx=0;exitDy=0;entryX=0.5;entryY=0;entryDx=0;entryDy=0;labelBackgroundColor=default;strokeColor=default;fontFamily=Helvetica;fontSize=11;fontColor=default;endArrow=none;endFill=0;" edge="1" parent="1" source="EGVu_2AXlCm4AcOK0Q-G-5" target="EGVu_2AXlCm4AcOK0Q-G-6">
          <mxGeometry relative="1" as="geometry" />
        </mxCell>
        <mxCell id="EGVu_2AXlCm4AcOK0Q-G-5" value="Display message" style="rounded=0;whiteSpace=wrap;html=1;spacingLeft=4;spacingRight=4;" vertex="1" parent="1">
          <mxGeometry x="370" y="440" width="120" height="60" as="geometry" />
        </mxCell>
        <mxCell id="EGVu_2AXlCm4AcOK0Q-G-6" value="Set eligible to True" style="rounded=0;whiteSpace=wrap;html=1;spacingLeft=4;spacingRight=4;" vertex="1" parent="1">
          <mxGeometry x="370" y="540" width="120" height="60" as="geometry" />
        </mxCell>
        <mxCell id="EGVu_2AXlCm4AcOK0Q-G-9" style="edgeStyle=none;shape=connector;rounded=0;orthogonalLoop=1;jettySize=auto;html=1;exitX=0.5;exitY=0;exitDx=0;exitDy=0;labelBackgroundColor=default;strokeColor=default;fontFamily=Helvetica;fontSize=11;fontColor=default;endArrow=none;endFill=0;entryX=0.5;entryY=1;entryDx=0;entryDy=0;" edge="1" parent="1" source="EGVu_2AXlCm4AcOK0Q-G-7" target="EGVu_2AXlCm4AcOK0Q-G-4">
          <mxGeometry relative="1" as="geometry">
            <mxPoint x="580" y="400" as="targetPoint" />
          </mxGeometry>
        </mxCell>
        <mxCell id="EGVu_2AXlCm4AcOK0Q-G-7" value="Display message" style="rounded=0;whiteSpace=wrap;html=1;spacingLeft=4;spacingRight=4;" vertex="1" parent="1">
          <mxGeometry x="510" y="440" width="120" height="60" as="geometry" />
        </mxCell>
        <mxCell id="EGVu_2AXlCm4AcOK0Q-G-24" style="edgeStyle=none;shape=connector;rounded=0;orthogonalLoop=1;jettySize=auto;html=1;exitX=0.5;exitY=0;exitDx=0;exitDy=0;labelBackgroundColor=default;strokeColor=default;fontFamily=Helvetica;fontSize=11;fontColor=default;endArrow=none;endFill=0;" edge="1" parent="1" source="EGVu_2AXlCm4AcOK0Q-G-11">
          <mxGeometry relative="1" as="geometry">
            <mxPoint x="820" y="290" as="targetPoint" />
          </mxGeometry>
        </mxCell>
        <mxCell id="EGVu_2AXlCm4AcOK0Q-G-28" style="edgeStyle=none;shape=connector;rounded=0;orthogonalLoop=1;jettySize=auto;html=1;exitX=0.5;exitY=1;exitDx=0;exitDy=0;labelBackgroundColor=default;strokeColor=default;fontFamily=Helvetica;fontSize=11;fontColor=default;endArrow=none;endFill=0;" edge="1" parent="1" source="EGVu_2AXlCm4AcOK0Q-G-11">
          <mxGeometry relative="1" as="geometry">
            <mxPoint x="820" y="410" as="targetPoint" />
          </mxGeometry>
        </mxCell>
        <mxCell id="EGVu_2AXlCm4AcOK0Q-G-11" value="Is user eligible&lt;br&gt;for an account?" style="shape=hexagon;perimeter=hexagonPerimeter2;whiteSpace=wrap;html=1;fixedSize=1;spacingLeft=4;spacingRight=4;" vertex="1" parent="1">
          <mxGeometry x="760" y="320" width="120" height="60" as="geometry" />
        </mxCell>
        <mxCell id="EGVu_2AXlCm4AcOK0Q-G-19" style="edgeStyle=none;shape=connector;rounded=0;orthogonalLoop=1;jettySize=auto;html=1;exitX=0.5;exitY=1;exitDx=0;exitDy=0;entryX=0.5;entryY=0;entryDx=0;entryDy=0;labelBackgroundColor=default;strokeColor=default;fontFamily=Helvetica;fontSize=11;fontColor=default;endArrow=none;endFill=0;" edge="1" parent="1" source="EGVu_2AXlCm4AcOK0Q-G-12" target="EGVu_2AXlCm4AcOK0Q-G-13">
          <mxGeometry relative="1" as="geometry" />
        </mxCell>
        <mxCell id="EGVu_2AXlCm4AcOK0Q-G-27" style="edgeStyle=none;shape=connector;rounded=0;orthogonalLoop=1;jettySize=auto;html=1;exitX=0.5;exitY=0;exitDx=0;exitDy=0;labelBackgroundColor=default;strokeColor=default;fontFamily=Helvetica;fontSize=11;fontColor=default;endArrow=none;endFill=0;" edge="1" parent="1" source="EGVu_2AXlCm4AcOK0Q-G-12">
          <mxGeometry relative="1" as="geometry">
            <mxPoint x="710" y="410" as="targetPoint" />
          </mxGeometry>
        </mxCell>
        <mxCell id="EGVu_2AXlCm4AcOK0Q-G-12" value="Enter username and password" style="rounded=0;whiteSpace=wrap;html=1;spacingLeft=4;spacingRight=4;" vertex="1" parent="1">
          <mxGeometry x="650" y="440" width="120" height="60" as="geometry" />
        </mxCell>
        <mxCell id="EGVu_2AXlCm4AcOK0Q-G-13" value="Re-enter username and password" style="rounded=0;whiteSpace=wrap;html=1;spacingLeft=4;spacingRight=4;" vertex="1" parent="1">
          <mxGeometry x="650" y="540" width="120" height="60" as="geometry" />
        </mxCell>
        <mxCell id="EGVu_2AXlCm4AcOK0Q-G-17" style="edgeStyle=none;shape=connector;rounded=0;orthogonalLoop=1;jettySize=auto;html=1;exitX=0.5;exitY=1;exitDx=0;exitDy=0;entryX=0.5;entryY=0;entryDx=0;entryDy=0;labelBackgroundColor=default;strokeColor=default;fontFamily=Helvetica;fontSize=11;fontColor=default;endArrow=none;endFill=0;" edge="1" parent="1" source="EGVu_2AXlCm4AcOK0Q-G-14" target="EGVu_2AXlCm4AcOK0Q-G-15">
          <mxGeometry relative="1" as="geometry" />
        </mxCell>
        <mxCell id="EGVu_2AXlCm4AcOK0Q-G-29" style="edgeStyle=none;shape=connector;rounded=0;orthogonalLoop=1;jettySize=auto;html=1;exitX=0.5;exitY=0;exitDx=0;exitDy=0;labelBackgroundColor=default;strokeColor=default;fontFamily=Helvetica;fontSize=11;fontColor=default;endArrow=none;endFill=0;" edge="1" parent="1" source="EGVu_2AXlCm4AcOK0Q-G-14">
          <mxGeometry relative="1" as="geometry">
            <mxPoint x="920" y="410" as="targetPoint" />
          </mxGeometry>
        </mxCell>
        <mxCell id="EGVu_2AXlCm4AcOK0Q-G-14" value="Do usenames&lt;br&gt;and passwords match?" style="shape=hexagon;perimeter=hexagonPerimeter2;whiteSpace=wrap;html=1;fixedSize=1;spacingLeft=4;spacingRight=4;" vertex="1" parent="1">
          <mxGeometry x="860" y="440" width="120" height="60" as="geometry" />
        </mxCell>
        <mxCell id="EGVu_2AXlCm4AcOK0Q-G-15" value="Display message" style="rounded=0;whiteSpace=wrap;html=1;spacingLeft=4;spacingRight=4;" vertex="1" parent="1">
          <mxGeometry x="790" y="560" width="120" height="60" as="geometry" />
        </mxCell>
        <mxCell id="EGVu_2AXlCm4AcOK0Q-G-18" style="edgeStyle=none;shape=connector;rounded=0;orthogonalLoop=1;jettySize=auto;html=1;exitX=0.5;exitY=0;exitDx=0;exitDy=0;entryX=0.5;entryY=1;entryDx=0;entryDy=0;labelBackgroundColor=default;strokeColor=default;fontFamily=Helvetica;fontSize=11;fontColor=default;endArrow=none;endFill=0;" edge="1" parent="1" source="EGVu_2AXlCm4AcOK0Q-G-16" target="EGVu_2AXlCm4AcOK0Q-G-14">
          <mxGeometry relative="1" as="geometry" />
        </mxCell>
        <mxCell id="EGVu_2AXlCm4AcOK0Q-G-16" value="Display message" style="rounded=0;whiteSpace=wrap;html=1;spacingLeft=4;spacingRight=4;" vertex="1" parent="1">
          <mxGeometry x="930" y="560" width="120" height="60" as="geometry" />
        </mxCell>
        <mxCell id="EGVu_2AXlCm4AcOK0Q-G-20" value="" style="endArrow=none;html=1;rounded=0;labelBackgroundColor=default;strokeColor=default;fontFamily=Helvetica;fontSize=11;fontColor=default;shape=connector;" edge="1" parent="1">
          <mxGeometry width="50" height="50" relative="1" as="geometry">
            <mxPoint x="220" y="290" as="sourcePoint" />
            <mxPoint x="820" y="290" as="targetPoint" />
          </mxGeometry>
        </mxCell>
        <mxCell id="EGVu_2AXlCm4AcOK0Q-G-26" value="" style="endArrow=none;html=1;rounded=0;labelBackgroundColor=default;strokeColor=default;fontFamily=Helvetica;fontSize=11;fontColor=default;shape=connector;" edge="1" parent="1">
          <mxGeometry width="50" height="50" relative="1" as="geometry">
            <mxPoint x="710" y="410" as="sourcePoint" />
            <mxPoint x="920" y="410" as="targetPoint" />
          </mxGeometry>
        </mxCell>
        <mxCell id="EGVu_2AXlCm4AcOK0Q-G-30" value="Yes" style="text;html=1;strokeColor=none;fillColor=none;align=right;verticalAlign=middle;whiteSpace=wrap;rounded=0;fontSize=11;fontFamily=Helvetica;fontColor=default;" vertex="1" parent="1">
          <mxGeometry x="410" y="384" width="60" height="30" as="geometry" />
        </mxCell>
        <mxCell id="EGVu_2AXlCm4AcOK0Q-G-31" value="No" style="text;html=1;strokeColor=none;fillColor=none;align=left;verticalAlign=middle;whiteSpace=wrap;rounded=0;fontSize=11;fontFamily=Helvetica;fontColor=default;" vertex="1" parent="1">
          <mxGeometry x="530" y="384" width="60" height="30" as="geometry" />
        </mxCell>
        <mxCell id="EGVu_2AXlCm4AcOK0Q-G-32" value="No" style="text;html=1;strokeColor=none;fillColor=none;align=left;verticalAlign=middle;whiteSpace=wrap;rounded=0;fontSize=11;fontFamily=Helvetica;fontColor=default;" vertex="1" parent="1">
          <mxGeometry x="960" y="510" width="60" height="30" as="geometry" />
        </mxCell>
        <mxCell id="EGVu_2AXlCm4AcOK0Q-G-33" value="Yes" style="text;html=1;strokeColor=none;fillColor=none;align=right;verticalAlign=middle;whiteSpace=wrap;rounded=0;fontSize=11;fontFamily=Helvetica;fontColor=default;" vertex="1" parent="1">
          <mxGeometry x="760" y="380" width="60" height="30" as="geometry" />
        </mxCell>
        <mxCell id="EGVu_2AXlCm4AcOK0Q-G-34" value="Yes" style="text;html=1;strokeColor=none;fillColor=none;align=right;verticalAlign=middle;whiteSpace=wrap;rounded=0;fontSize=11;fontFamily=Helvetica;fontColor=default;" vertex="1" parent="1">
          <mxGeometry x="820" y="510" width="60" height="30" as="geometry" />
        </mxCell>
      </root>
    </mxGraphModel>
  </diagram>
</mxfile>
